<?xml version="1.0" standalone="no"?><!DOCTYPE svg PUBLIC "-//W3C//DTD SVG 1.1//EN" "http://www.w3.org/Graphics/SVG/1.1/DTD/svg11.dtd"><svg t="1724478646381" class="icon" viewBox="0 0 1024 1024" version="1.1" xmlns="http://www.w3.org/2000/svg" p-id="756" xmlns:xlink="http://www.w3.org/1999/xlink" width="512" height="512"><path d="M993.88 1024c-16.65 0-30.12-13.47-30.12-30.12V873.41c0-16.65 13.47-30.12 30.12-30.12s30.12 13.47 30.12 30.12v120.47c0 16.65-13.47 30.12-30.12 30.12z m-180.71 0H692.7c-16.65 0-30.12-13.47-30.12-30.12s13.47-30.12 30.12-30.12h120.47c16.65 0 30.12 13.47 30.12 30.12S829.82 1024 813.17 1024zM512 1024H391.53c-16.65 0-30.12-13.47-30.12-30.12s13.47-30.12 30.12-30.12H512c16.65 0 30.12 13.47 30.12 30.12S528.64 1024 512 1024z m-301.18 0H90.35c-16.65 0-30.12-13.47-30.12-30.12s13.47-30.12 30.12-30.12h120.47c16.65 0 30.12 13.47 30.12 30.12S227.47 1024 210.82 1024zM30.12 903.53C13.47 903.53 0 890.06 0 873.41V752.94c0-16.65 13.47-30.12 30.12-30.12s30.12 13.47 30.12 30.12v120.47c-0.01 16.65-13.48 30.12-30.12 30.12z m963.76-180.71c-16.65 0-30.12-13.47-30.12-30.12V572.24c0-16.65 13.47-30.12 30.12-30.12s30.12 13.47 30.12 30.12v120.47c0 16.64-13.47 30.11-30.12 30.11zM30.12 602.35C13.47 602.35 0 588.88 0 572.23V451.76c0-16.65 13.47-30.12 30.12-30.12s30.12 13.47 30.12 30.12v120.47c-0.01 16.65-13.48 30.12-30.12 30.12z m963.76-180.7c-16.65 0-30.12-13.47-30.12-30.12V271.06c0-16.65 13.47-30.12 30.12-30.12s30.12 13.47 30.12 30.12v120.47c0 16.65-13.47 30.12-30.12 30.12zM30.12 301.18C13.47 301.18 0 287.71 0 271.06V150.59c0-16.65 13.47-30.12 30.12-30.12s30.12 13.47 30.12 30.12v120.47c-0.01 16.65-13.48 30.12-30.12 30.12z m963.76-180.71c-16.65 0-30.12-13.47-30.12-30.12V60.24h-30.12c-16.65 0-30.12-13.47-30.12-30.12S916.99 0 933.64 0h60.24c16.65 0 30.12 13.47 30.12 30.12v60.23c0 16.65-13.47 30.12-30.12 30.12zM752.94 60.24H632.47c-16.65 0-30.12-13.47-30.12-30.12S615.82 0 632.47 0h120.47c16.65 0 30.12 13.47 30.12 30.12s-13.47 30.12-30.12 30.12z m-301.18 0H331.29c-16.65 0-30.12-13.47-30.12-30.12S314.64 0 331.29 0h120.47c16.65 0 30.12 13.47 30.12 30.12s-13.47 30.12-30.12 30.12z m-301.17 0H30.12C13.47 60.24 0 46.77 0 30.12S13.47 0 30.12 0h120.47c16.65 0 30.12 13.47 30.12 30.12s-13.48 30.12-30.12 30.12zM813.17 843.29H572.23c-16.65 0-30.12-13.47-30.12-30.12V692.71c0-16.65 13.47-30.12 30.12-30.12h90.35v-90.35c0-16.65 13.47-30.12 30.12-30.12h120.47c16.65 0 30.12 13.47 30.12 30.12v240.94c0 16.64-13.47 30.11-30.12 30.11z m-210.82-60.23h180.71V602.35h-60.24v90.35c0 16.65-13.47 30.12-30.12 30.12h-90.35v60.24z" fill="#515151" p-id="757"></path><path d="M692.7 722.82H210.82c-16.65 0-30.12-13.47-30.12-30.12V210.82c0-16.65 13.47-30.12 30.12-30.12H692.7c16.65 0 30.12 13.47 30.12 30.12V692.7c0 16.65-13.47 30.12-30.12 30.12z m-451.76-60.23h421.65V240.94H240.94v421.65z" fill="#515151" p-id="758"></path></svg>